<svg xmlns="http://www.w3.org/2000/svg" xmlns:xlink="http://www.w3.org/1999/xlink" width="1080" zoomAndPan="magnify" viewBox="0 0 810 809.999993" height="1080" preserveAspectRatio="xMidYMid meet" version="1.0"><path fill="#ffffff" d="M 749.824219 465.976562 L 193.558594 788.738281 C 146.351562 816.101562 85.769531 782.96875 85.769531 727.804688 L 85.769531 82.28125 C 85.769531 27.207031 146.265625 -6.011719 193.558594 21.4375 L 749.824219 344.199219 C 752.496094 345.722656 755.058594 347.417969 757.507812 349.28125 C 759.957031 351.144531 762.277344 353.160156 764.460938 355.332031 C 766.644531 357.5 768.675781 359.800781 770.558594 362.238281 C 772.441406 364.671875 774.152344 367.222656 775.699219 369.882812 C 777.242188 372.546875 778.609375 375.296875 779.792969 378.140625 C 780.972656 380.980469 781.964844 383.886719 782.765625 386.859375 C 783.566406 389.832031 784.167969 392.84375 784.570312 395.894531 C 784.976562 398.945312 785.175781 402.011719 785.175781 405.089844 C 785.175781 408.164062 784.976562 411.230469 784.570312 414.28125 C 784.167969 417.332031 783.566406 420.34375 782.765625 423.316406 C 781.964844 426.289062 780.972656 429.195312 779.792969 432.039062 C 778.609375 434.878906 777.242188 437.628906 775.699219 440.292969 C 774.152344 442.953125 772.441406 445.503906 770.558594 447.9375 C 768.675781 450.375 766.644531 452.675781 764.460938 454.847656 C 762.277344 457.015625 759.957031 459.03125 757.507812 460.894531 C 755.058594 462.757812 752.496094 464.453125 749.824219 465.976562 " fill-opacity="1" fill-rule="nonzero"/></svg>